<svg width="17" height="17" viewBox="0 0 17 17" fill="none" xmlns="http://www.w3.org/2000/svg">
<path d="M15.234 13.1713V15.4648C15.2349 15.6778 15.1912 15.8885 15.1057 16.0836C15.0203 16.2787 14.8949 16.4538 14.7377 16.5978C14.5805 16.7417 14.3949 16.8513 14.1929 16.9195C13.9908 16.9877 13.7766 17.013 13.5642 16.9939C11.2071 16.7383 8.94297 15.9344 6.95371 14.6468C5.10296 13.473 3.53384 11.9069 2.35779 10.0597C1.06326 8.06519 0.257647 5.7944 0.00621728 3.43127C-0.0129243 3.21986 0.0122494 3.00678 0.0801352 2.80561C0.148021 2.60443 0.257132 2.41957 0.400521 2.26279C0.54391 2.10602 0.718435 1.98075 0.912984 1.89498C1.10753 1.80921 1.31785 1.76482 1.53053 1.76462H3.82849C4.20022 1.76096 4.56061 1.89235 4.84247 2.13429C5.12433 2.37622 5.30843 2.7122 5.36046 3.07959C5.45745 3.81358 5.63732 4.53427 5.89665 5.2279C5.99971 5.50154 6.02201 5.79893 5.96092 6.08484C5.89983 6.37074 5.7579 6.63317 5.55196 6.84104L4.57915 7.81198C5.66958 9.72599 7.25739 11.3108 9.17507 12.3991L10.1479 11.4282C10.3561 11.2226 10.6191 11.081 10.9055 11.02C11.192 10.959 11.4899 10.9813 11.7641 11.0841C12.4591 11.343 13.1811 11.5225 13.9165 11.6193C14.2886 11.6717 14.6284 11.8588 14.8713 12.1449C15.1143 12.4311 15.2433 12.7963 15.234 13.1713Z" fill="#E2001A"/>
<path fill-rule="evenodd" clip-rule="evenodd" d="M8.91656 0.889884C8.97742 0.340963 9.47175 -0.0546852 10.0207 0.00617895C11.8001 0.203477 13.4597 0.998819 14.7269 2.26204C15.9942 3.52529 16.7937 5.18139 16.9938 6.95851C17.0556 7.50733 16.6607 8.00232 16.1119 8.06411C15.5631 8.1259 15.0681 7.73108 15.0063 7.18226C14.8571 5.85698 14.2608 4.62139 13.3149 3.67849C12.369 2.73556 11.1297 2.1414 9.80026 1.994C9.25134 1.93313 8.85569 1.4388 8.91656 0.889884ZM8.9289 3.86703C9.03447 3.32493 9.5595 2.97105 10.1016 3.07661C11.0447 3.26027 11.9118 3.7207 12.5917 4.39926C13.2715 5.07785 13.7333 5.94373 13.9175 6.88619C14.0235 7.42821 13.67 7.9535 13.128 8.05946C12.5859 8.16541 12.0606 7.81191 11.9547 7.26988C11.847 6.71886 11.5769 6.2122 11.1788 5.81483C10.7806 5.41744 10.2725 5.14746 9.71932 5.03974C9.17722 4.93417 8.82334 4.40913 8.9289 3.86703Z" fill="#E2001A"/>
</svg>
